<?xml version="1.0" encoding="utf-8"?>
<!-- Generator: Adobe Illustrator 16.0.4, SVG Export Plug-In . SVG Version: 6.00 Build 0)  -->
<!DOCTYPE svg PUBLIC "-//W3C//DTD SVG 1.1//EN" "http://www.w3.org/Graphics/SVG/1.1/DTD/svg11.dtd">
<svg version="1.1" id="Layer_1" xmlns="http://www.w3.org/2000/svg" xmlns:xlink="http://www.w3.org/1999/xlink" x="0px" y="0px"
	 width="100px" height="100px" viewBox="0 0 100 100" enable-background="new 0 0 100 100" xml:space="preserve">
<g>
	<circle fill="#D19028" stroke="#000000" stroke-width="0.4736" stroke-miterlimit="10" cx="76.105" cy="71.693" r="9.164"/>
	<circle fill="#D19028" stroke="#000000" stroke-width="0.4736" stroke-miterlimit="10" cx="50" cy="76.432" r="9.164"/>
	<circle fill="#D19028" stroke="#000000" stroke-width="0.4736" stroke-miterlimit="10" cx="25.537" cy="71.693" r="9.164"/>
	<path fill="#C1482B" stroke="#000000" stroke-width="0.4736" stroke-miterlimit="10" d="M25.536,78.016
		c-4.576,0-8.358-3.358-9.042-7.743c-0.073,0.464-0.121,0.936-0.121,1.421c0,5.061,4.103,9.164,9.163,9.164
		c5.062,0,9.164-4.104,9.164-9.164c0-0.485-0.049-0.957-0.121-1.421C33.896,74.657,30.113,78.016,25.536,78.016z"/>
	<path fill="#C1482B" stroke="#000000" stroke-width="0.4736" stroke-miterlimit="10" d="M49.999,82.754
		c-4.576,0-8.358-3.358-9.043-7.743c-0.072,0.465-0.121,0.937-0.121,1.421c0,5.062,4.104,9.164,9.164,9.164
		c5.062,0,9.165-4.103,9.165-9.164c0-0.484-0.049-0.956-0.123-1.421C58.357,79.396,54.574,82.754,49.999,82.754z"/>
	<path fill="#C1482B" stroke="#000000" stroke-width="0.4736" stroke-miterlimit="10" d="M76.105,78.016
		c-4.576,0-8.359-3.358-9.043-7.743c-0.072,0.464-0.121,0.936-0.121,1.421c0,5.061,4.104,9.164,9.164,9.164s9.164-4.104,9.164-9.164
		c0-0.485-0.047-0.957-0.121-1.421C84.465,74.657,80.682,78.016,76.105,78.016z"/>
	<path fill="#C1482B" stroke="#000000" stroke-width="0.4736" stroke-miterlimit="10" d="M95.061,57.073
		c0,11.002-20.174,19.923-45.062,19.923c-24.886,0-45.06-8.921-45.06-19.923c0-11.004,20.174-0.966,45.06-0.966
		C74.887,56.107,95.061,46.069,95.061,57.073z"/>
	<path fill="#D19028" stroke="#000000" stroke-width="0.4736" stroke-miterlimit="10" d="M97.912,57.072
		c0,3.537-21.451,6.405-47.912,6.405S2.088,60.609,2.088,57.072c0-3.538,21.451-22.52,47.912-22.52S97.912,53.534,97.912,57.072z"/>
	<path fill="#FEB52B" stroke="#000000" stroke-width="0.4736" stroke-miterlimit="10" d="M56.404,57.546
		c0,1.569-1.271,2.841-2.842,2.841h-7.127c-1.569,0-2.842-1.271-2.842-2.841l1.896-9.481c0-1.569,1.272-2.841,2.842-2.841h3.337
		c1.568,0,2.84,1.272,2.84,2.841L56.404,57.546z"/>
	<path fill="#FEB52B" stroke="#000000" stroke-width="0.4736" stroke-miterlimit="10" d="M89.756,55.526
		c0.967,1,0.939,1.812-0.062,1.812h-4.545c-1,0-2.594-0.812-3.562-1.812l-4.629-6.046c-0.965-1-0.938-1.812,0.064-1.812h2.125
		c1,0,2.596,0.812,3.562,1.812L89.756,55.526z"/>
	<path fill="#FEB52B" stroke="#000000" stroke-width="0.4736" stroke-miterlimit="10" d="M74.266,57.153
		c0.609,1.367-0.006,2.476-1.373,2.476H66.68c-1.367,0-2.969-1.108-3.578-2.476l-2.025-8.263c-0.611-1.368,0.006-2.477,1.373-2.477
		h2.906c1.369,0,2.971,1.109,3.58,2.477L74.266,57.153z"/>
	<path fill="#FEB52B" stroke="#000000" stroke-width="0.4736" stroke-miterlimit="10" d="M10.242,55.526
		c-0.966,1-0.938,1.812,0.063,1.812h4.545c1,0,2.595-0.812,3.562-1.812l4.629-6.046c0.967-1,0.938-1.812-0.062-1.812h-2.127
		c-1.001,0-2.595,0.812-3.562,1.812L10.242,55.526z"/>
	<path fill="#FEB52B" stroke="#000000" stroke-width="0.4736" stroke-miterlimit="10" d="M25.733,57.153
		c-0.609,1.367,0.007,2.476,1.373,2.476h6.212c1.367,0,2.97-1.108,3.579-2.476l2.025-8.263c0.61-1.368-0.007-2.477-1.373-2.477
		h-2.906c-1.368,0-2.971,1.109-3.579,2.477L25.733,57.153z"/>
	<path fill="#C1482B" stroke="#000000" stroke-width="0.4736" stroke-miterlimit="10" d="M81.217,42.974
		c-4.799-2.61-10.418-4.986-16.588-6.545c-4.605-0.123-9.521-0.19-14.63-0.19s-10.022,0.067-14.629,0.19
		c-6.17,1.559-11.789,3.935-16.588,6.545c8.314,0.602,19.24,0.967,31.217,0.967C61.977,43.941,72.902,43.576,81.217,42.974z"/>
	<path fill="#B9DBEF" stroke="#000000" stroke-width="0.4736" stroke-miterlimit="10" d="M23.748,40.511
		c0-14.419,11.688-26.107,26.106-26.107c14.419,0,26.106,11.688,26.106,26.107h-24.83H23.748z"/>
	<path opacity="0.7" fill="#FFFFFF" d="M56.914,18.034c0,0,5.178,6.651,4.172,11.949c0,0,7.15-0.142,10.766,3.384
		C71.852,33.367,70.344,21.062,56.914,18.034z"/>
</g>
</svg>
